<?xml version="1.0" standalone="no"?>
<!DOCTYPE svg PUBLIC "-//W3C//DTD SVG 20010904//EN"
 "http://www.w3.org/TR/2001/REC-SVG-20010904/DTD/svg10.dtd">
<svg version="1.0" xmlns="http://www.w3.org/2000/svg"
 width="236.000000pt" height="236.000000pt" viewBox="0 0 236.000000 236.000000"
 preserveAspectRatio="xMidYMid meet">
<metadata>
Created by potrace 1.14, written by Peter Selinger 2001-2017
</metadata>
<g transform="translate(0.000000,236.000000) scale(0.100000,-0.100000)"
fill="#000000" stroke="none">
<path d="M0 1180 l0 -1180 1180 0 1180 0 0 582 0 582 -50 -55 c-27 -30 -49
-49 -50 -44 0 6 11 44 25 85 15 41 28 94 30 118 2 24 7 57 11 75 6 28 9 56 16
142 1 11 6 23 11 26 5 4 5 15 -2 27 -14 26 -15 122 -1 122 6 0 10 123 10 350
l0 350 -1180 0 -1180 0 0 -1180z m1547 540 c12 -31 12 -31 -29 -34 -8 -1 -12
8 -10 19 8 54 22 59 39 15z m33 -116 c0 -13 5 -24 10 -24 6 0 10 -6 10 -14 0
-8 7 -22 16 -31 10 -9 13 -20 8 -24 -11 -9 -183 -35 -190 -29 -2 3 4 26 13 51
12 34 23 47 38 48 17 1 17 2 3 6 -35 9 -8 50 37 55 38 4 55 -8 55 -38z m-1095
-44 c3 -5 8 -29 11 -52 2 -24 7 -48 9 -55 7 -19 -4 -21 -105 -14 l-95 6 28 28
c15 15 27 31 27 35 0 11 83 62 102 62 9 0 20 -4 23 -10z m1165 -129 c0 -13
-27 -21 -45 -15 -8 4 -12 10 -9 15 7 12 54 12 54 0z m135 -58 c-3 -13 1 -33 9
-46 30 -47 40 -120 26 -186 -7 -33 -16 -61 -20 -61 -8 0 -35 133 -44 215 -2
22 -8 59 -11 83 -5 30 -4 42 4 42 7 0 9 6 6 13 -4 6 3 1 15 -12 14 -17 19 -32
15 -48z m-82 -80 c1 -45 5 -79 10 -76 5 3 6 -9 2 -28 -5 -27 -4 -31 5 -19 9
12 10 6 6 -25 -4 -30 -3 -36 5 -25 8 12 9 9 5 -12 -3 -15 -2 -30 4 -33 5 -3
10 2 10 12 1 14 4 13 15 -7 19 -33 19 -59 0 -66 -8 -4 -15 -11 -15 -17 0 -6
-12 -24 -27 -41 l-28 -29 32 22 c18 12 39 32 48 43 16 23 16 23 34 -7 10 -18
11 -17 5 7 -8 37 35 132 47 102 4 -10 8 -54 8 -98 1 -70 -1 -77 -16 -71 -15 5
-16 4 -5 -6 6 -7 12 -20 12 -28 0 -23 -50 -123 -82 -163 -16 -21 -26 -38 -21
-38 17 0 93 72 109 102 9 16 18 28 20 25 7 -6 -23 -66 -44 -89 -46 -53 54 14
106 71 l34 36 -7 -30 c-17 -77 -132 -274 -216 -370 -34 -38 -68 -80 -76 -92
-14 -22 -20 -23 -102 -17 -112 7 -271 54 -372 110 -145 80 -375 192 -419 204
-38 10 -55 9 -130 -11 l-87 -22 -36 27 c-20 15 -63 67 -96 115 -59 87 -68 94
-146 117 -22 7 -33 19 -42 44 -12 36 -17 110 -8 110 3 0 20 -16 37 -35 17 -20
33 -33 36 -30 3 3 -4 15 -15 28 -23 24 -43 60 -43 75 0 6 34 18 76 28 43 10
82 23 88 29 6 7 16 10 21 8 14 -4 163 81 182 104 8 10 11 12 8 5 -4 -8 16 3
45 24 50 36 52 36 45 13 -21 -70 -77 -168 -111 -194 -46 -35 -179 -105 -202
-106 -9 -1 -2 -5 16 -9 41 -10 124 -1 115 13 -3 5 0 7 8 5 8 -3 37 3 64 13 28
11 67 19 88 19 23 0 36 4 32 10 -3 6 3 10 14 10 11 0 26 6 33 13 7 6 24 13 37
15 13 2 37 12 55 22 78 47 73 45 56 25 -8 -10 -33 -31 -54 -47 -44 -31 -37
-36 19 -12 38 15 71 12 60 -6 -3 -5 -2 -10 4 -10 6 0 8 -6 5 -14 -3 -8 -1 -23
5 -33 10 -17 10 -17 12 2 1 11 0 32 -1 47 -2 32 17 71 30 63 5 -3 22 1 37 9
30 16 108 83 83 70 -9 -4 -12 -3 -7 2 5 5 14 9 20 9 7 1 11 7 9 14 -1 7 2 10
7 7 5 -3 39 28 77 69 37 41 70 72 72 70 10 -10 -69 -154 -109 -200 -34 -39
-38 -46 -17 -32 32 20 42 22 32 5 -4 -7 4 -2 17 11 38 40 109 143 109 161 0 8
11 27 25 42 14 15 25 31 25 35 0 22 40 6 51 -19 26 -64 115 -91 173 -53 30 20
56 63 56 93 0 10 3 22 7 26 14 13 25 -40 26 -121z m-1337 70 c-3 -3 6 -30 20
-60 13 -31 24 -60 24 -65 0 -13 -137 -148 -151 -148 -7 0 -10 29 -8 88 2 48 0
92 -4 99 -4 6 0 29 8 50 15 37 17 39 66 40 27 0 48 -1 45 -4z m1220 -48 c-11
-8 -16 -15 -10 -15 5 0 2 -5 -6 -10 -20 -13 -39 -12 -20 1 11 8 8 9 -13 4 -21
-4 -28 -2 -25 7 5 13 39 26 73 27 20 0 20 0 1 -14z m644 -270 c-6 -23 -34 -71
-61 -108 -29 -38 -47 -72 -43 -78 4 -8 3 -9 -4 -5 -6 4 -21 2 -33 -4 -11 -7
-22 -10 -24 -8 -2 2 18 48 44 103 27 55 51 111 55 123 4 13 22 32 39 43 l32
19 3 -21 c2 -12 -1 -41 -8 -64z m-182 -158 c-10 -33 -38 -53 -38 -27 0 12 42
72 46 67 2 -2 -2 -20 -8 -40z"/>
<path d="M1560 1250 l-45 -7 42 -1 c23 -1 45 3 48 8 3 6 5 9 3 8 -2 0 -23 -4
-48 -8z"/>
<path d="M959 702 c-4 -40 -1 -51 18 -75 31 -40 35 -33 12 26 -23 57 -28 66
-30 49z"/>
<path d="M1098 643 c7 -3 16 -2 19 1 4 3 -2 6 -13 5 -11 0 -14 -3 -6 -6z"/>
</g>
</svg>
